<svg width="121" height="69" viewBox="0 0 121 69" fill="none" xmlns="http://www.w3.org/2000/svg">
<g clip-path="url(#clip0_144_35)">
<path d="M15.3967 42.8448H0.807129V52.9332" stroke="#2C4345" stroke-width="2.5233" stroke-miterlimit="10" stroke-linecap="round" stroke-linejoin="round"/>
<path d="M59.7239 68.2527C63.8384 68.2527 67.1739 64.907 67.1739 60.7798C67.1739 56.6526 63.8384 53.3069 59.7239 53.3069C55.6094 53.3069 52.2739 56.6526 52.2739 60.7798C52.2739 64.907 55.6094 68.2527 59.7239 68.2527Z" stroke="#2C4345" stroke-width="2.5233" stroke-miterlimit="10"/>
<path d="M109.515 20.3637C108.149 13.5135 100.885 12.6417 100.885 12.6417C100.885 12.6417 37.8707 10.4621 25.1436 11.8321C15.6449 12.8285 13.7824 23.4774 13.7824 23.4774C13.7824 23.4774 11.6095 35.2473 10.4299 42.5334L109.577 41.9729L109.515 20.3637Z" fill="#3C6F6F"/>
<path d="M110.136 52.8087V42.658V42.0352L10.6163 42.5957V42.658C10.1818 45.4603 9.87134 47.5776 9.87134 48.1381C9.9955 52.9332 12.6651 55.7979 15.2105 57.3547C17.818 58.9738 20.3634 59.3475 20.3634 59.3475L47.68 59.5966C48.3629 53.6805 53.3916 49.0099 59.4758 49.0099C65.6841 49.0099 70.7128 53.7428 71.3336 59.7834L101.879 60.0948C110.508 60.4062 110.136 52.8087 110.136 52.8087Z" fill="white"/>
<path d="M110.136 52.8087V42.6579V42.0352L109.515 20.3637C108.149 13.5135 100.885 12.6417 100.885 12.6417C100.885 12.6417 37.8708 10.4621 25.1438 11.8321C15.6451 12.8285 13.7826 23.4774 13.7826 23.4774C13.7826 23.4774 9.87134 47.5153 9.87134 48.0135C9.9955 52.8087 12.6651 55.6733 15.2105 57.2302C17.818 58.8493 20.3634 59.2229 20.3634 59.2229L47.68 59.472C48.3629 53.556 53.3916 48.8854 59.4758 48.8854C65.6841 48.8854 70.7128 53.6182 71.3336 59.6589L101.879 59.9702C110.508 60.4061 110.136 52.8087 110.136 52.8087Z" stroke="#2C4345" stroke-width="5.0465" stroke-miterlimit="10"/>
<path d="M10.4299 42.8447L110.135 42.5956" stroke="#2C4345" stroke-width="2.5233" stroke-miterlimit="10"/>
<path d="M18.4387 28.2103C18.4387 23.7888 21.2945 20.7374 26.3854 20.6128C27.9995 20.5505 29.7999 20.8619 30.9795 21.3601L30.3587 25.8439C28.6204 25.2211 26.5716 25.1588 25.392 25.5948C24.3366 26.0307 23.9641 26.9648 23.9641 28.148C23.9641 29.3312 24.3987 30.4522 25.5783 30.8258C27.0062 31.2617 29.1791 30.9504 30.7933 30.2653L31.6003 34.7491C30.3587 35.3718 28.4341 35.8078 26.4474 35.8078C21.605 35.7455 18.4387 32.8186 18.4387 28.2103Z" fill="#2C4345"/>
<path d="M32.2212 29.8295C32.2212 26.2798 34.7045 23.9134 38.9262 23.9134C43.1478 23.9134 45.6311 26.2798 45.6311 29.8295C45.6311 33.3791 43.1478 35.7455 38.9262 35.7455C34.7045 35.7455 32.2212 33.3791 32.2212 29.8295ZM40.6024 29.8295C40.6024 28.3971 39.9195 27.7121 38.9262 27.7121C37.8708 27.7121 37.2499 28.3971 37.2499 29.8295C37.2499 31.2618 37.9328 31.9468 38.9262 31.9468C39.9195 31.9468 40.6024 31.2618 40.6024 29.8295Z" fill="#2C4345"/>
<path d="M46.8106 24.287H51.7773V25.3457C52.6464 24.5361 53.9502 24.0379 55.316 24.0379C59.9722 24.0379 59.7239 30.2031 59.1652 35.3718H54.5089C54.6952 29.8917 54.3848 28.9576 53.5156 28.833C52.8948 28.7085 52.336 28.8953 51.7773 29.2067C51.7152 31.2617 51.6531 33.3168 51.5289 35.3718H47.059C46.6244 31.6354 46.5002 28.0235 46.8106 24.287Z" fill="#2C4345"/>
<path d="M62.2695 30.0785L62.2074 28.4594L60.407 28.3971V24.287L62.2074 24.2247L62.2695 21.5469H67.2361L67.2982 24.2247L69.7815 24.287V28.3971L67.2982 28.4594V28.9576C67.2361 30.2031 67.3603 30.7635 67.7949 31.0126C68.4157 31.324 69.1607 31.1372 69.7194 31.0749L69.9678 35.3096C69.1607 35.5587 68.1674 35.6832 66.9257 35.6832C63.9457 35.6209 62.3936 34.2509 62.2695 30.0785Z" fill="#2C4345"/>
<path d="M70.8369 21.4847C70.8369 20.0524 71.8302 19.056 73.5686 19.056C75.3069 19.056 76.3002 20.0524 76.3002 21.4847C76.3002 22.9793 75.3069 23.9134 73.5686 23.9134C71.8302 23.9134 70.8369 22.9793 70.8369 21.4847ZM71.0852 24.287H76.0519C76.1761 28.0235 76.114 31.6354 75.8656 35.4341H71.2715C71.0232 31.6354 70.9611 28.0235 71.0852 24.287Z" fill="#2C4345"/>
<path d="M82.1361 34.0018C82.1361 34.1264 82.1361 34.3132 82.1982 34.5C82.3844 34.8114 83.0053 35.0605 84.4332 35.0605C85.8611 35.0605 87.9098 34.8114 89.1515 34.3755L89.4619 38.4856C88.2203 38.9215 86.3578 39.2951 84.309 39.2951C80.6461 39.2951 77.9765 38.4233 77.9765 35.8078C77.9765 34.6868 78.4732 33.815 79.5286 33.13C78.1007 32.2581 77.3557 30.8881 77.3557 29.1444C77.3557 25.9684 79.7149 23.9756 83.8124 23.9756C84.8057 23.9756 85.7369 24.1002 86.544 24.3493C86.6061 23.8511 86.544 23.2906 86.4819 22.5433L90.4552 22.6679C90.7036 24.0379 90.2069 25.2834 89.0273 25.7816C89.8344 26.6534 90.3311 27.7744 90.3311 29.2067C90.3311 32.2581 87.9719 34.2509 83.8744 34.2509C83.1915 34.1264 82.6328 34.0641 82.1361 34.0018ZM85.3023 29.0199C85.3023 27.8989 84.6815 27.4007 83.7503 27.4007C82.819 27.4007 82.1982 27.8989 82.1982 29.0199C82.1982 30.1408 82.819 30.639 83.7503 30.639C84.7436 30.639 85.3023 30.1408 85.3023 29.0199Z" fill="#2C4345"/>
<path d="M91.0759 29.8295C91.0759 26.2798 93.5593 23.9134 97.7809 23.9134C102.003 23.9134 104.486 26.2798 104.486 29.8295C104.486 33.3791 102.003 35.7455 97.7809 35.7455C93.5593 35.7455 91.0759 33.3791 91.0759 29.8295ZM99.4571 29.8295C99.4571 28.3971 98.7742 27.7121 97.7809 27.7121C96.7255 27.7121 96.1047 28.3971 96.1047 29.8295C96.1047 31.2618 96.7876 31.9468 97.7809 31.9468C98.7742 31.9468 99.4571 31.2618 99.4571 29.8295Z" fill="#2C4345"/>
<path d="M18.4387 26.0307C18.4387 21.6092 21.2945 18.5578 26.3854 18.4332C27.9995 18.371 29.7999 18.6823 30.9795 19.1805L30.3587 23.6643C28.6204 23.0416 26.5716 22.9793 25.392 23.4152C24.3366 23.8511 23.9641 24.7852 23.9641 25.9684C23.9641 27.1517 24.3987 28.2726 25.5783 28.6462C27.0062 29.0822 29.1791 28.7708 30.7933 28.0858L31.6003 32.5695C30.3587 33.1923 28.4341 33.6282 26.4474 33.6282C21.605 33.5659 18.4387 30.639 18.4387 26.0307Z" fill="white"/>
<path d="M32.2212 27.6498C32.2212 24.1002 34.7045 21.7338 38.9262 21.7338C43.1478 21.7338 45.6311 24.1002 45.6311 27.6498C45.6311 31.1995 43.1478 33.5659 38.9262 33.5659C34.7045 33.5659 32.2212 31.1995 32.2212 27.6498ZM40.6024 27.6498C40.6024 26.2175 39.9195 25.5325 38.9262 25.5325C37.8708 25.5325 37.2499 26.2175 37.2499 27.6498C37.2499 29.0821 37.9328 29.7672 38.9262 29.7672C39.9195 29.7049 40.6024 29.0821 40.6024 27.6498Z" fill="white"/>
<path d="M46.8106 22.1074H51.7773V23.1661C52.6464 22.3565 53.9502 21.8583 55.316 21.8583C59.9722 21.8583 59.7239 28.0235 59.1652 33.1923H54.5089C54.6952 27.7121 54.3848 26.778 53.5156 26.6535C52.8948 26.5289 52.336 26.7157 51.7773 27.0271C51.7152 29.0822 51.6531 31.1372 51.5289 33.1923H47.059C46.6244 29.4558 46.5002 25.8439 46.8106 22.1074Z" fill="white"/>
<path d="M62.2695 27.8366L62.2074 26.2175L60.407 26.1552V22.0451L62.2074 21.9829L62.2695 19.3051H67.2361L67.2982 21.9829L69.7815 22.0451V26.1552L67.2982 26.2175V26.7157C67.2361 27.9612 67.3603 28.5217 67.7949 28.7708C68.4157 29.0821 69.1607 28.8953 69.7194 28.833L69.9678 33.0677C69.1607 33.3168 68.1674 33.4413 66.9257 33.4413C63.9457 33.4413 62.3936 32.009 62.2695 27.8366Z" fill="white"/>
<path d="M70.8369 19.2428C70.8369 17.8105 71.8302 16.8141 73.5686 16.8141C75.3069 16.8141 76.3002 17.8105 76.3002 19.2428C76.3002 20.7374 75.3069 21.6715 73.5686 21.6715C71.8302 21.7338 70.8369 20.7374 70.8369 19.2428ZM71.0852 22.1074H76.0519C76.1761 25.8439 76.114 29.4558 75.8656 33.2545H71.2715C71.0232 29.4558 70.9611 25.8439 71.0852 22.1074Z" fill="white"/>
<path d="M82.1361 31.8222C82.1361 31.9467 82.1361 32.1336 82.1982 32.3204C82.3844 32.6318 83.0053 32.8809 84.4332 32.8809C85.8611 32.8809 87.9098 32.6318 89.1515 32.1958L89.4619 36.3059C88.2203 36.7419 86.3578 37.1155 84.309 37.1155C80.6461 37.1155 77.9765 36.2437 77.9765 33.6281C77.9765 32.5072 78.4732 31.6354 79.5286 30.9504C78.1007 30.0785 77.3557 28.7085 77.3557 26.9648C77.3557 23.7888 79.7149 21.796 83.8124 21.796C84.8057 21.796 85.7369 21.9206 86.544 22.1697C86.6061 21.6715 86.544 21.111 86.4819 20.3637L90.4552 20.4883C90.7036 21.8583 90.2069 23.1038 89.0273 23.602C89.8344 24.4738 90.3311 25.5948 90.3311 27.0271C90.3311 30.0785 87.9719 32.0713 83.8744 32.0713C83.1915 31.9467 82.6328 31.8845 82.1361 31.8222ZM85.3023 26.8402C85.3023 25.7193 84.6815 25.2211 83.7503 25.2211C82.819 25.2211 82.1982 25.7193 82.1982 26.8402C82.1982 27.9612 82.819 28.4594 83.7503 28.4594C84.7436 28.4594 85.3023 27.9612 85.3023 26.8402Z" fill="white"/>
<path d="M91.0759 27.6498C91.0759 24.1002 93.5593 21.7338 97.7809 21.7338C102.003 21.7338 104.486 24.1002 104.486 27.6498C104.486 31.1995 102.003 33.5659 97.7809 33.5659C93.5593 33.5659 91.0759 31.1995 91.0759 27.6498ZM99.4571 27.6498C99.4571 26.2175 98.7742 25.5325 97.7809 25.5325C96.7255 25.5325 96.1047 26.2175 96.1047 27.6498C96.1047 29.0821 96.7876 29.7672 97.7809 29.7672C98.7742 29.7049 99.4571 29.0821 99.4571 27.6498Z" fill="white"/>
<path d="M36.7533 6.47652C35.015 6.47652 34.0837 5.41786 34.0837 3.3628C34.0837 1.30775 34.9529 0.249084 36.6912 0.249084C37.995 0.249084 38.74 0.996377 38.9883 1.93049C38.9883 2.05504 38.9883 2.11732 38.8641 2.11732L38.3675 2.24186C38.2433 2.30414 38.1812 2.24186 38.1191 2.11732C37.8708 1.37002 37.4983 1.05865 36.7533 1.05865C35.5737 1.05865 35.015 1.74367 35.015 3.30053C35.015 4.85739 35.5737 5.54241 36.7533 5.54241C37.4983 5.54241 37.9329 5.16876 38.2433 4.29692C38.3054 4.17237 38.3675 4.17237 38.4916 4.17237L38.9883 4.29692C39.1125 4.48374 39.1746 4.54602 39.1125 4.60829C38.8021 5.85378 37.995 6.47652 36.7533 6.47652Z" fill="#2C4345"/>
<path d="M42.8995 5.97833C42.527 6.2897 41.8441 6.47652 41.2853 6.47652C40.292 6.47652 39.6711 5.91605 39.6711 5.10649C39.6711 3.92327 40.4782 3.48735 42.8995 3.48735V3.30053C42.8995 2.74006 42.527 2.49096 41.9061 2.49096C41.3474 2.49096 41.037 2.67779 40.9128 3.05143C40.9128 3.17598 40.8507 3.17598 40.6645 3.17598H40.1057C39.9816 3.17598 39.9195 3.11371 39.9195 2.98916C40.0436 2.17959 40.7266 1.6814 41.9061 1.6814C43.1478 1.6814 43.7686 2.24187 43.7686 3.3628V6.22743C43.7686 6.35197 43.7065 6.41425 43.5824 6.41425H43.0857C42.9615 6.41425 42.8995 6.35197 42.8995 6.22743V5.97833ZM42.8995 4.23465C41.1611 4.29692 40.5403 4.48374 40.5403 5.10649C40.5403 5.48013 40.9128 5.72923 41.4716 5.72923C41.9061 5.72923 42.4028 5.60468 42.9615 5.29331V4.23465H42.8995Z" fill="#2C4345"/>
<path d="M46.6865 1.6814C47.1832 1.6814 47.5557 1.86822 47.804 2.30414C48.0524 1.93049 48.549 1.6814 49.0457 1.6814C49.8528 1.6814 50.3494 2.24187 50.3494 3.11371V6.22743C50.3494 6.35197 50.2874 6.41425 50.1632 6.41425H49.6665C49.5424 6.41425 49.4803 6.35197 49.4803 6.22743V3.23826C49.4803 2.74006 49.2319 2.49096 48.7353 2.49096C48.3007 2.49096 47.9903 2.74006 47.9903 3.17598V6.22743C47.9903 6.35197 47.9282 6.41425 47.804 6.41425H47.3074C47.1832 6.41425 47.1211 6.35197 47.1211 6.22743V3.23826C47.1211 2.74006 46.8728 2.49096 46.3761 2.49096C45.9415 2.49096 45.6311 2.74006 45.6311 3.17598V6.22743C45.6311 6.35197 45.569 6.41425 45.4449 6.41425H44.9482C44.824 6.41425 44.762 6.35197 44.762 6.22743V1.99277C44.762 1.86822 44.824 1.80595 44.9482 1.80595H45.4449C45.569 1.80595 45.6311 1.86822 45.6311 1.99277V2.17959C45.8795 1.86822 46.252 1.6814 46.6865 1.6814Z" fill="#2C4345"/>
<path d="M51.2188 1.99277C51.2188 1.86822 51.2808 1.80595 51.405 1.80595H51.9017C52.0258 1.80595 52.0879 1.86822 52.0879 1.99277V2.24187C52.3362 1.93049 52.895 1.6814 53.3917 1.6814C54.5092 1.6814 55.2542 2.61551 55.2542 4.1101C55.2542 5.60468 54.5712 6.47652 53.4537 6.47652C52.895 6.47652 52.3983 6.22743 52.0879 5.85378V7.47291C52.0879 7.59746 52.0258 7.65974 51.9017 7.65974H51.405C51.2808 7.65974 51.2188 7.59746 51.2188 7.47291V1.99277ZM53.2054 2.55324C52.8329 2.55324 52.3362 2.67779 52.0879 2.92688V4.67057C52.0879 5.29331 52.5225 5.66696 53.2675 5.66696C53.9504 5.66696 54.385 5.04421 54.385 4.1101C54.385 3.11371 54.0125 2.55324 53.2054 2.55324Z" fill="#2C4345"/>
<path d="M56.3096 0.498224C56.3096 0.373676 56.3717 0.311401 56.4958 0.311401H56.9925C57.1167 0.311401 57.1787 0.373676 57.1787 0.498224V1.24552C57.1787 1.37007 57.1167 1.43234 56.9925 1.43234H56.4958C56.3717 1.43234 56.3096 1.37007 56.3096 1.24552V0.498224ZM56.3096 2.05508C56.3096 1.93053 56.3717 1.86826 56.4958 1.86826H56.9925C57.1167 1.86826 57.1787 1.93053 57.1787 2.05508V6.22747C57.1787 6.35202 57.1167 6.41429 56.9925 6.41429H56.4958C56.3717 6.41429 56.3096 6.35202 56.3096 6.22747V2.05508Z" fill="#2C4345"/>
<path d="M60.2827 2.55324C59.5998 2.55324 59.2273 2.92688 59.2273 3.48735V6.22743C59.2273 6.35197 59.1652 6.41425 59.0411 6.41425H58.5444C58.4202 6.41425 58.3582 6.35197 58.3582 6.22743V1.99277C58.3582 1.86822 58.4202 1.80595 58.5444 1.80595H58.979C59.1032 1.80595 59.1652 1.86822 59.1652 1.99277V2.24187C59.4757 1.93049 59.9723 1.6814 60.469 1.6814C61.5244 1.6814 62.1452 2.30414 62.1452 3.42508V6.22743C62.1452 6.35197 62.0831 6.41425 61.959 6.41425H61.4623C61.3381 6.41425 61.2761 6.35197 61.2761 6.22743V3.6119C61.3381 2.86461 60.9656 2.55324 60.2827 2.55324Z" fill="#2C4345"/>
<path d="M65.1873 6.97474C65.8702 6.97474 66.1806 6.66336 66.1806 6.04062V5.29333C65.8702 5.6047 65.3736 5.79152 64.8769 5.79152C63.7594 5.79152 63.0144 4.98196 63.0144 3.73647C63.0144 2.49098 63.7594 1.61914 64.939 1.61914C65.3736 1.61914 65.9323 1.80596 66.1806 2.11734V1.99279C66.1806 1.86824 66.2427 1.80596 66.3669 1.80596H66.8636C66.9877 1.80596 67.0498 1.86824 67.0498 2.05506V6.1029C67.0498 7.28611 66.3669 7.90885 65.1252 7.90885C64.0077 7.90885 63.2627 7.34838 63.2627 6.47654C63.2627 6.35199 63.3248 6.28972 63.449 6.28972H63.9457C64.0698 6.28972 64.1319 6.35199 64.1319 6.41427C64.2561 6.78791 64.5665 6.97474 65.1873 6.97474ZM65.0011 4.98196C65.7461 4.98196 66.1806 4.60831 66.1806 4.17239V2.86463C65.9323 2.6778 65.4356 2.55326 65.0631 2.55326C64.3182 2.55326 63.8836 3.05145 63.8836 3.79874C63.8836 4.48376 64.3181 4.98196 65.0011 4.98196Z" fill="#2C4345"/>
<path d="M74.9966 5.3556C75.307 5.60469 75.6174 5.91606 75.9899 6.22744C76.1141 6.35199 76.052 6.47653 75.8658 6.47653H75.1829C75.0587 6.47653 74.9345 6.41426 74.8724 6.35199C74.7483 6.22744 74.6241 6.10289 74.4999 5.97834C73.9412 6.41426 73.2583 6.66336 72.3891 6.66336C70.8991 6.66336 70.092 6.04061 70.092 4.91967C70.092 4.11011 70.5266 3.48736 71.5199 2.98917C71.0854 2.49097 70.8991 1.99278 70.8991 1.55686C70.8991 0.622744 71.582 0 72.6995 0C73.7549 0 74.4999 0.622744 74.4999 1.49458C74.4999 2.1796 74.1274 2.6778 73.0099 3.23827C73.5687 3.79874 74.0033 4.29693 74.4379 4.73285C74.6241 4.42148 74.6862 4.04783 74.7483 3.61191C74.7483 3.48736 74.8104 3.42509 74.9966 3.42509H75.4933C75.6174 3.42509 75.6795 3.48736 75.6795 3.61191C75.4933 4.29693 75.307 4.8574 74.9966 5.3556ZM70.9612 4.91967C70.9612 5.48014 71.4579 5.85379 72.327 5.85379C72.9479 5.85379 73.4445 5.66697 73.817 5.3556C73.3204 4.91968 72.7616 4.35921 72.0787 3.67419C71.2716 4.11011 70.9612 4.42148 70.9612 4.91967ZM73.4445 1.49458C73.4445 1.05866 73.1341 0.809567 72.5754 0.809567C72.0166 0.809567 71.6441 1.05866 71.6441 1.49458C71.6441 1.80596 71.7683 2.11733 72.265 2.61552C73.072 2.24188 73.4445 1.86823 73.4445 1.49458Z" fill="#2C4345"/>
<path d="M79.5286 0.311401H81.7015C82.9432 0.311401 83.564 0.809596 83.564 1.86826C83.564 2.42873 83.3156 2.86465 82.8811 3.11375C83.5019 3.30057 83.9365 3.92331 83.9365 4.67061C83.9365 5.79155 83.2536 6.41429 81.9498 6.41429H79.4665C79.2182 6.41429 79.094 6.28974 79.094 6.04064V0.685048C79.2182 0.43595 79.3423 0.311401 79.5286 0.311401ZM82.6948 1.99281C82.6948 1.43234 82.3844 1.18324 81.7636 1.18324H80.0873V2.86465H81.7636C82.3844 2.86465 82.6948 2.55328 82.6948 1.99281ZM80.0873 3.67422V5.54245H82.074C82.7569 5.54245 83.0673 5.23108 83.0673 4.60833C83.0673 3.98559 82.7569 3.67422 82.074 3.67422H80.0873Z" fill="#2C4345"/>
<path d="M88.034 5.97833C87.6615 6.2897 86.9786 6.47652 86.4198 6.47652C85.4265 6.47652 84.8057 5.91605 84.8057 5.10649C84.8057 3.92327 85.6127 3.48735 88.034 3.48735V3.30053C88.034 2.74006 87.6615 2.49096 87.0407 2.49096C86.4819 2.49096 86.1715 2.67779 86.0473 3.05143C86.0473 3.17598 85.9852 3.17598 85.799 3.17598H85.2402C85.1161 3.17598 85.054 3.11371 85.054 2.98916C85.1782 2.17959 85.8611 1.6814 87.0407 1.6814C88.2823 1.6814 88.9031 2.24187 88.9031 3.3628V6.22743C88.9031 6.35197 88.8411 6.41425 88.7169 6.41425H88.2202C88.0961 6.41425 88.034 6.35197 88.034 6.22743V5.97833ZM88.034 4.23465C86.2957 4.29692 85.6748 4.48374 85.6748 5.10649C85.6748 5.48013 86.0473 5.72923 86.6061 5.72923C87.0407 5.72923 87.5373 5.60468 88.0961 5.29331V4.23465H88.034Z" fill="#2C4345"/>
<path d="M91.5728 2.55324C91.0141 2.55324 90.7036 2.80234 90.7036 3.30053V6.22743C90.7036 6.35197 90.6416 6.41425 90.5174 6.41425H90.0207C89.8966 6.41425 89.8345 6.35197 89.8345 6.22743V1.99277C89.8345 1.86822 89.8966 1.80595 90.0207 1.80595H90.5174C90.6416 1.80595 90.7036 1.86822 90.7036 1.99277V2.11732C90.952 1.86822 91.3865 1.6814 91.8211 1.6814C92.0695 1.6814 92.2557 1.74367 92.442 1.80595C92.5661 1.86822 92.5661 1.93049 92.5661 2.05504L92.504 2.49096C92.442 2.61551 92.3799 2.67779 92.2557 2.61551C92.0074 2.55324 91.7591 2.55324 91.5728 2.55324Z" fill="#2C4345"/>
<path d="M93.3112 0.311401H93.8078C93.932 0.311401 93.9941 0.373676 93.9941 0.498224V2.30418C94.3666 1.93053 94.8012 1.68144 95.3599 1.68144C96.4774 1.68144 97.1603 2.55328 97.1603 4.04786C97.1603 5.54245 96.4153 6.47656 95.2978 6.47656C94.8012 6.47656 94.2424 6.22747 93.9941 5.91609V6.22747C93.9941 6.35202 93.932 6.41429 93.8078 6.41429H93.3112C93.187 6.41429 93.1249 6.35202 93.1249 6.22747V0.498224C93.0628 0.373676 93.187 0.311401 93.3112 0.311401ZM95.1737 2.55328C94.4287 2.55328 93.9941 2.92692 93.9941 3.54967V5.29335C94.3045 5.48017 94.7391 5.667 95.1116 5.667C95.8566 5.667 96.2912 5.10653 96.2912 4.11014C96.2912 3.11375 95.8566 2.55328 95.1737 2.55328Z" fill="#2C4345"/>
<path d="M100.264 6.47651C98.8364 6.53879 98.0293 5.7915 97.9673 4.17236C97.9052 2.6155 98.5881 1.74366 99.9539 1.68139C101.258 1.61911 102.065 2.42868 102.127 3.86099C102.127 4.17236 102.003 4.42146 101.63 4.42146L98.8364 4.54601C98.9606 5.35557 99.3952 5.66695 100.202 5.60467C100.699 5.60467 101.071 5.41785 101.258 5.0442C101.32 4.98193 101.382 4.91965 101.444 4.91965H101.941C102.065 4.91965 102.127 4.98193 102.127 5.10648C102.065 5.91604 101.382 6.41424 100.264 6.47651ZM101.258 3.67417C101.196 2.80233 100.823 2.42868 100.016 2.49095C99.271 2.55323 98.8985 2.92687 98.8364 3.79872L101.258 3.67417Z" fill="#2C4345"/>
<path d="M104.672 6.8502C103.306 6.53883 102.748 5.54244 103.058 4.04785C103.369 2.49099 104.3 1.86825 105.604 2.11735C106.659 2.36644 107.218 2.92691 107.218 3.9233C107.218 4.04785 107.156 4.11013 107.031 4.11013H106.535C106.411 4.11013 106.349 4.04785 106.349 3.9233C106.286 3.36283 106.038 3.11374 105.479 2.98919C104.61 2.80236 104.176 3.17601 103.989 4.23467C103.741 5.29334 103.989 5.79153 104.921 6.04063C105.541 6.16518 105.852 5.97836 106.162 5.48016C106.224 5.41789 106.286 5.35561 106.411 5.41789L106.907 5.60471C107.031 5.66698 107.031 5.72926 106.969 5.85381C106.535 6.72565 105.728 7.0993 104.672 6.8502Z" fill="#2C4345"/>
<path d="M108.832 7.53521C109.391 7.84658 109.949 7.72203 110.198 7.28611L111.501 4.91968C111.564 4.79513 111.688 4.79513 111.812 4.85741L112.246 5.10651C112.371 5.16878 112.371 5.29333 112.309 5.41788L110.26 9.09206C110.198 9.21661 110.074 9.21661 109.949 9.15434L109.515 8.90524C109.391 8.84297 109.391 8.71842 109.453 8.59387L109.577 8.34477C109.142 8.46932 108.584 8.40705 108.149 8.15795C107.218 7.65975 106.969 6.78791 107.528 5.79152L108.894 3.36282C108.956 3.23827 109.08 3.23827 109.204 3.30055L109.639 3.54965C109.763 3.61192 109.763 3.73647 109.701 3.86102L108.397 6.16517C108.087 6.72564 108.211 7.16156 108.832 7.53521Z" fill="#2C4345"/>
<path d="M111.626 10.898C110.694 9.77706 110.818 8.65612 111.998 7.65973C113.178 6.66334 114.295 6.66334 115.226 7.722C116.096 8.71839 115.971 9.83933 114.792 10.8357C114.543 11.0225 114.295 11.0848 114.047 10.7734L112.246 8.65612C111.688 9.27886 111.688 9.77706 112.246 10.3998C112.557 10.7734 112.929 10.9603 113.302 10.898C113.364 10.898 113.488 10.898 113.55 10.9603L113.861 11.3339C113.923 11.4585 113.923 11.5207 113.861 11.583C113.178 12.0189 112.308 11.7076 111.626 10.898ZM114.419 9.96388C115.04 9.40341 115.102 8.84294 114.606 8.28247C114.109 7.722 113.55 7.65973 112.867 8.15792L114.419 9.96388Z" fill="#2C4345"/>
<path d="M115.971 18.8069C115.785 19.1805 115.537 19.4919 115.351 19.9278C115.288 20.0524 115.102 19.9901 115.102 19.8655L114.978 19.1805C114.978 19.056 114.978 18.9314 115.04 18.8692C115.102 18.7446 115.226 18.5578 115.288 18.4332C114.73 17.9973 114.357 17.3123 114.171 16.5027C113.861 15.0704 114.357 14.1363 115.413 13.8872C116.22 13.7004 116.903 14.074 117.586 14.8836C118.02 14.3854 118.455 14.074 118.889 13.9495C119.821 13.7627 120.503 14.3231 120.752 15.3818C120.938 16.4405 120.503 17.25 119.634 17.4368C118.951 17.5614 118.393 17.25 117.648 16.3159C117.151 17.0009 116.778 17.4991 116.468 18.0596C116.778 18.1841 117.213 18.1841 117.586 18.1219C117.71 18.1219 117.772 18.1841 117.834 18.3087L117.958 18.8069C117.958 18.9314 117.896 18.9937 117.834 19.056C117.089 19.1183 116.468 19.056 115.971 18.8069ZM115.599 14.759C115.04 14.8836 114.792 15.4441 114.978 16.2536C115.102 16.8764 115.351 17.3123 115.723 17.6237C116.096 17.0632 116.53 16.3782 117.027 15.5686C116.406 14.8836 116.033 14.6968 115.599 14.759ZM119.386 16.565C119.821 16.5027 120.007 16.1291 119.883 15.5686C119.758 15.0081 119.448 14.6968 119.076 14.8213C118.765 14.8836 118.517 15.0704 118.082 15.6309C118.641 16.3159 119.013 16.6273 119.386 16.565Z" fill="#2C4345"/>
<path d="M114.792 25.3457C114.854 23.602 115.909 22.7301 117.958 22.7924C120.007 22.8547 121.062 23.7265 121 25.4702C121 26.778 120.193 27.5253 119.262 27.7121C119.138 27.7121 119.076 27.7121 119.076 27.5875L118.951 27.0894C118.951 26.9648 118.951 26.9025 119.076 26.8403C119.821 26.5912 120.131 26.2175 120.131 25.4702C120.131 24.287 119.448 23.7265 117.896 23.7265C116.344 23.6643 115.599 24.2247 115.599 25.4702C115.599 26.2175 115.971 26.7157 116.779 26.9648C116.903 27.0271 116.903 27.0894 116.903 27.2139L116.779 27.7121C116.716 27.8366 116.654 27.8989 116.592 27.8366C115.351 27.4007 114.73 26.5912 114.792 25.3457Z" fill="#2C4345"/>
<path d="M115.164 31.5108C114.916 31.1372 114.668 30.3899 114.668 29.8917C114.668 28.8953 115.226 28.2726 116.096 28.2726C117.275 28.2726 117.648 29.1444 117.71 31.5731H117.834C118.393 31.5731 118.703 31.1995 118.703 30.5767C118.703 30.0163 118.517 29.7049 118.144 29.5803C118.02 29.5803 118.02 29.5181 118.02 29.3312V28.7708C118.02 28.6462 118.082 28.584 118.206 28.584C119.014 28.7085 119.51 29.4558 119.51 30.5767C119.51 31.8222 118.951 32.445 117.772 32.445L114.916 32.3827C114.792 32.3827 114.73 32.3204 114.73 32.1959V31.6977C114.73 31.5731 114.792 31.5108 114.916 31.5108H115.164ZM116.903 31.5731C116.903 29.8294 116.654 29.2067 116.096 29.1444C115.723 29.1444 115.475 29.5181 115.475 30.0785C115.475 30.5145 115.599 31.0127 115.909 31.5731H116.903Z" fill="#2C4345"/>
<path d="M118.703 34.3132H119.696C120.441 34.3132 120.876 34.8114 120.876 35.6209C120.876 35.87 120.876 36.0568 120.814 36.2437C120.752 36.3682 120.69 36.4305 120.628 36.4305H120.131C120.007 36.4305 119.945 36.3682 120.007 36.2437C120.007 36.1191 120.069 35.9323 120.069 35.8077C120.069 35.4341 119.883 35.2473 119.572 35.2473H118.703V36.7419C118.703 36.8664 118.641 36.9287 118.517 36.9287H118.02C117.896 36.9287 117.834 36.8664 117.834 36.7419V35.2473H114.916C114.792 35.2473 114.73 35.185 114.73 35.0604V34.5623C114.73 34.4377 114.792 34.3754 114.916 34.3754H117.834V33.3168C117.834 33.1922 117.896 33.1299 118.02 33.1299H118.517C118.641 33.1299 118.703 33.1922 118.703 33.3168V34.3132Z" fill="#2C4345"/>
<path d="M114.605 39.5442C114.605 38.1119 115.413 37.3646 117.027 37.3646C118.579 37.3646 119.448 38.1119 119.448 39.482C119.448 40.7897 118.641 41.5993 117.151 41.5993C116.84 41.5993 116.592 41.4125 116.592 41.1011V38.2987C115.785 38.4233 115.475 38.7969 115.475 39.6065C115.475 40.1047 115.661 40.4783 115.971 40.6652C116.033 40.7274 116.095 40.7897 116.095 40.9143V41.4125C116.095 41.537 116.033 41.5993 115.909 41.5993C115.102 41.4125 114.605 40.6652 114.605 39.5442ZM117.337 40.6652C118.206 40.6652 118.579 40.2915 118.579 39.482C118.579 38.7347 118.206 38.2987 117.337 38.2365V40.6652Z" fill="#2C4345"/>
</g>
<defs>
<clipPath id="clip0_144_35">
<rect width="121" height="69" fill="white"/>
</clipPath>
</defs>
</svg>
