<svg width="188" height="109" viewBox="0 0 188 109" fill="none" xmlns="http://www.w3.org/2000/svg">
<path d="M24.4989 67.2432H2V83.0766" stroke="#2C4345" stroke-width="2.5233" stroke-miterlimit="10" stroke-linecap="round" stroke-linejoin="round"/>
<path d="M92.8575 107.12C99.2026 107.12 104.346 101.869 104.346 95.3916C104.346 88.9141 99.2026 83.6631 92.8575 83.6631C86.5124 83.6631 81.3687 88.9141 81.3687 95.3916C81.3687 101.869 86.5124 107.12 92.8575 107.12Z" stroke="#2C4345" stroke-width="2.5233" stroke-miterlimit="10"/>
<path d="M169.641 31.9601C167.535 21.2091 156.333 19.8407 156.333 19.8407C156.333 19.8407 59.1567 16.4199 39.53 18.5701C24.8818 20.1339 22.0096 36.847 22.0096 36.847C22.0096 36.847 18.6587 55.3193 16.8396 66.7546L169.737 65.875L169.641 31.9601Z" fill="#3C6F6F"/>
<path d="M170.598 82.8812V66.95V65.9727L17.1269 66.8523V66.95C16.4567 71.3482 15.978 74.6713 15.978 75.5509C16.1695 83.0767 20.2863 87.5726 24.2117 90.016C28.2328 92.5572 32.1581 93.1436 32.1581 93.1436L74.2838 93.5345C75.3369 84.2495 83.0919 76.9192 92.4744 76.9192C102.048 76.9192 109.803 84.3473 110.761 93.8278L157.865 94.3165C171.173 94.8051 170.598 82.8812 170.598 82.8812Z" fill="white"/>
<path d="M170.598 82.8812V66.9501V65.9727L169.641 31.9601C167.535 21.2091 156.333 19.8407 156.333 19.8407C156.333 19.8407 59.1568 16.4199 39.5301 18.5701C24.8819 20.1339 22.0097 36.847 22.0097 36.847C22.0097 36.847 15.978 74.5736 15.978 75.3555C16.1695 82.8812 20.2863 87.3772 24.2117 89.8206C28.2328 92.3618 32.1581 92.9482 32.1581 92.9482L74.2838 93.3391C75.3369 84.0541 83.0919 76.7238 92.4744 76.7238C102.048 76.7238 109.803 84.1518 110.761 93.6323L157.865 94.121C171.173 94.8052 170.598 82.8812 170.598 82.8812Z" stroke="#2C4345" stroke-width="5.0465" stroke-miterlimit="10"/>
<path d="M16.8396 67.2424L170.598 66.8521" stroke="#2C4345" stroke-width="2.5233" stroke-miterlimit="10"/>
<path d="M29.1902 44.2747C29.1902 37.3354 33.5942 32.5462 41.4449 32.3508C43.9342 32.253 46.7106 32.7417 48.5297 33.5236L47.5723 40.5607C44.8916 39.5833 41.7321 39.4856 39.9131 40.1697C38.2855 40.8539 37.7111 42.32 37.7111 44.177C37.7111 46.034 38.3812 47.7933 40.2003 48.3797C42.4023 49.0638 45.7532 48.5751 48.2425 47.5L49.4871 54.5371C47.5723 55.5145 44.6043 56.1987 41.5407 56.1987C34.0729 56.1009 29.1902 51.5073 29.1902 44.2747Z" fill="#2C4345"/>
<path d="M50.4446 46.8163C50.4446 41.2453 54.2742 37.5312 60.7845 37.5312C67.2948 37.5312 71.1244 41.2453 71.1244 46.8163C71.1244 52.3873 67.2948 56.1013 60.7845 56.1013C54.2742 56.1013 50.4446 52.3873 50.4446 46.8163ZM63.3695 46.8163C63.3695 44.5683 62.3164 43.4932 60.7845 43.4932C59.1569 43.4932 58.1995 44.5683 58.1995 46.8163C58.1995 49.0642 59.2527 50.1393 60.7845 50.1393C62.3164 50.1393 63.3695 49.0642 63.3695 46.8163Z" fill="#2C4345"/>
<path d="M72.9434 38.118H80.6026V39.7795C81.943 38.509 83.9535 37.7271 86.0598 37.7271C93.2403 37.7271 92.8574 47.403 91.9957 55.5152H84.8152C85.1024 46.9144 84.6237 45.4483 83.2833 45.2528C82.3259 45.0573 81.4643 45.3506 80.6026 45.8392C80.5069 49.0646 80.4111 52.2899 80.2197 55.5152H73.3264C72.6562 49.651 72.4647 43.9822 72.9434 38.118Z" fill="#2C4345"/>
<path d="M96.7826 47.2074L96.6869 44.6662L93.9104 44.5685V38.1178L96.6869 38.0201L96.7826 33.8174H104.442L104.538 38.0201L108.367 38.1178V44.5685L104.538 44.6662V45.4481C104.442 47.4029 104.633 48.2825 105.303 48.6734C106.261 49.1621 107.41 48.8689 108.271 48.7712L108.654 55.4173C107.41 55.8083 105.878 56.0037 103.963 56.0037C99.3676 55.906 96.9741 53.7558 96.7826 47.2074Z" fill="#2C4345"/>
<path d="M109.995 33.7195C109.995 31.4715 111.527 29.9077 114.207 29.9077C116.888 29.9077 118.42 31.4715 118.42 33.7195C118.42 36.0652 116.888 37.5312 114.207 37.5312C111.527 37.5312 109.995 36.0652 109.995 33.7195ZM110.378 38.1176H118.037C118.229 43.9819 118.133 49.6506 117.75 55.6126H110.665C110.282 49.6506 110.186 43.9819 110.378 38.1176Z" fill="#2C4345"/>
<path d="M127.42 53.365C127.42 53.5605 127.42 53.8537 127.515 54.1469C127.803 54.6356 128.76 55.0265 130.962 55.0265C133.164 55.0265 136.323 54.6356 138.238 53.9514L138.717 60.4021C136.802 61.0862 133.93 61.6727 130.771 61.6727C125.122 61.6727 121.005 60.3043 121.005 56.1994C121.005 54.4401 121.771 53.0718 123.399 51.9967C121.196 50.6284 120.048 48.4781 120.048 45.7415C120.048 40.7569 123.686 37.6293 130.005 37.6293C131.536 37.6293 132.973 37.8248 134.217 38.2157C134.313 37.4338 134.217 36.5542 134.121 35.3813L140.249 35.5768C140.632 37.727 139.866 39.6818 138.047 40.4637C139.291 41.832 140.057 43.5913 140.057 45.8392C140.057 50.6284 136.419 53.7559 130.1 53.7559C129.047 53.5605 128.186 53.4627 127.42 53.365ZM132.302 45.546C132.302 43.7867 131.345 43.0049 129.909 43.0049C128.473 43.0049 127.515 43.7867 127.515 45.546C127.515 47.3053 128.473 48.0872 129.909 48.0872C131.441 48.0872 132.302 47.3053 132.302 45.546Z" fill="#2C4345"/>
<path d="M141.206 46.8163C141.206 41.2453 145.036 37.5312 151.546 37.5312C158.056 37.5312 161.886 41.2453 161.886 46.8163C161.886 52.3873 158.056 56.1013 151.546 56.1013C145.036 56.1013 141.206 52.3873 141.206 46.8163ZM154.131 46.8163C154.131 44.5683 153.078 43.4932 151.546 43.4932C149.918 43.4932 148.961 44.5683 148.961 46.8163C148.961 49.0642 150.014 50.1393 151.546 50.1393C153.078 50.1393 154.131 49.0642 154.131 46.8163Z" fill="#2C4345"/>
<path d="M29.1902 40.8538C29.1902 33.9145 33.5942 29.1253 41.4449 28.9299C43.9342 28.8321 46.7106 29.3208 48.5297 30.1027L47.5723 37.1398C44.8916 36.1624 41.7321 36.0647 39.9131 36.7488C38.2855 37.433 37.7111 38.8991 37.7111 40.7561C37.7111 42.6131 38.3812 44.3724 40.2003 44.9588C42.4023 45.6429 45.7532 45.1542 48.2425 44.0791L49.4871 51.1162C47.5723 52.0936 44.6043 52.7778 41.5407 52.7778C34.0729 52.68 29.1902 48.0864 29.1902 40.8538Z" fill="white"/>
<path d="M50.4446 43.3954C50.4446 37.8244 54.2742 34.1104 60.7845 34.1104C67.2948 34.1104 71.1244 37.8244 71.1244 43.3954C71.1244 48.9664 67.2948 52.6804 60.7845 52.6804C54.2742 52.6804 50.4446 48.9664 50.4446 43.3954ZM63.3695 43.3954C63.3695 41.1474 62.3164 40.0723 60.7845 40.0723C59.1569 40.0723 58.1995 41.1474 58.1995 43.3954C58.1995 45.6433 59.2527 46.7184 60.7845 46.7184C62.3164 46.6207 63.3695 45.6433 63.3695 43.3954Z" fill="white"/>
<path d="M72.9434 34.6971H80.6026V36.3586C81.943 35.0881 83.9535 34.3062 86.0598 34.3062C93.2403 34.3062 92.8574 43.9821 91.9957 52.0943H84.8152C85.1024 43.4935 84.6237 42.0274 83.2833 41.8319C82.3259 41.6364 81.4643 41.9297 80.6026 42.4183C80.5069 45.6437 80.4111 48.869 80.2197 52.0943H73.3264C72.6562 46.2301 72.4647 40.5613 72.9434 34.6971Z" fill="white"/>
<path d="M96.7826 43.6888L96.6869 41.1477L93.9104 41.0499V34.5993L96.6869 34.5015L96.7826 30.2988H104.442L104.538 34.5015L108.367 34.5993V41.0499L104.538 41.1477V41.9296C104.442 43.8843 104.633 44.7639 105.303 45.1549C106.261 45.6436 107.41 45.3504 108.271 45.2526L108.654 51.8988C107.41 52.2897 105.878 52.4852 103.963 52.4852C99.3676 52.4852 96.9741 50.2372 96.7826 43.6888Z" fill="white"/>
<path d="M109.995 30.2009C109.995 27.953 111.527 26.3892 114.207 26.3892C116.888 26.3892 118.42 27.953 118.42 30.2009C118.42 32.5466 116.888 34.0127 114.207 34.0127C111.527 34.1104 109.995 32.5466 109.995 30.2009ZM110.378 34.6968H118.037C118.229 40.5611 118.133 46.2298 117.75 52.1918H110.665C110.282 46.2298 110.186 40.5611 110.378 34.6968Z" fill="white"/>
<path d="M127.42 49.9441C127.42 50.1396 127.42 50.4328 127.515 50.726C127.803 51.2147 128.76 51.6056 130.962 51.6056C133.164 51.6056 136.323 51.2147 138.238 50.5305L138.717 56.9812C136.802 57.6653 133.93 58.2518 130.771 58.2518C125.122 58.2518 121.005 56.8834 121.005 52.7785C121.005 51.0192 121.771 49.6509 123.399 48.5758C121.196 47.2075 120.048 45.0572 120.048 42.3206C120.048 37.336 123.686 34.2084 130.005 34.2084C131.536 34.2084 132.973 34.4039 134.217 34.7948C134.313 34.0129 134.217 33.1333 134.121 31.9604L140.249 32.1559C140.632 34.3061 139.866 36.2609 138.047 37.0428C139.291 38.4111 140.057 40.1704 140.057 42.4183C140.057 47.2075 136.419 50.335 130.1 50.335C129.047 50.1396 128.186 50.0418 127.42 49.9441ZM132.302 42.1251C132.302 40.3658 131.345 39.584 129.909 39.584C128.473 39.584 127.515 40.3658 127.515 42.1251C127.515 43.8844 128.473 44.6663 129.909 44.6663C131.441 44.6663 132.302 43.8844 132.302 42.1251Z" fill="white"/>
<path d="M141.206 43.3954C141.206 37.8244 145.036 34.1104 151.546 34.1104C158.056 34.1104 161.886 37.8244 161.886 43.3954C161.886 48.9664 158.056 52.6804 151.546 52.6804C145.036 52.6804 141.206 48.9664 141.206 43.3954ZM154.131 43.3954C154.131 41.1474 153.078 40.0723 151.546 40.0723C149.918 40.0723 148.961 41.1474 148.961 43.3954C148.961 45.6433 150.014 46.7184 151.546 46.7184C153.078 46.6207 154.131 45.6433 154.131 43.3954Z" fill="white"/>
<path d="M57.4335 10.1648C54.7528 10.1648 53.3167 8.5033 53.3167 5.27797C53.3167 2.05265 54.657 0.391113 57.3377 0.391113C59.3483 0.391113 60.4972 1.56396 60.8801 3.03002C60.8801 3.22549 60.8801 3.32323 60.6886 3.32323L59.9227 3.5187C59.7312 3.61644 59.6355 3.5187 59.5398 3.32323C59.1568 2.15038 58.5824 1.6617 57.4335 1.6617C55.6144 1.6617 54.7528 2.73681 54.7528 5.18024C54.7528 7.62367 55.6144 8.69878 57.4335 8.69878C58.5824 8.69878 59.2525 8.11235 59.7312 6.74403C59.827 6.54856 59.9227 6.54856 60.1142 6.54856L60.8801 6.74403C61.0716 7.03724 61.1673 7.13498 61.0716 7.23272C60.5929 9.18746 59.3483 10.1648 57.4335 10.1648Z" fill="#2C4345"/>
<path d="M66.9118 9.38303C66.3374 9.87172 65.2843 10.1649 64.4226 10.1649C62.8907 10.1649 61.9333 9.28529 61.9333 8.01471C61.9333 6.1577 63.178 5.47354 66.9118 5.47354V5.18033C66.9118 4.30069 66.3374 3.90974 65.38 3.90974C64.5183 3.90974 64.0396 4.20296 63.8482 4.78938C63.8482 4.98485 63.7524 4.98485 63.4652 4.98485H62.6035C62.412 4.98485 62.3163 4.88712 62.3163 4.69164C62.5078 3.42106 63.5609 2.63916 65.38 2.63916C67.2948 2.63916 68.2522 3.5188 68.2522 5.27807V9.77398C68.2522 9.96945 68.1565 10.0672 67.965 10.0672H67.1991C67.0076 10.0672 66.9118 9.96945 66.9118 9.77398V9.38303ZM66.9118 6.64639C64.2311 6.74412 63.2737 7.03734 63.2737 8.01471C63.2737 8.60113 63.8482 8.99208 64.7098 8.99208C65.38 8.99208 66.1459 8.79661 67.0076 8.30792V6.64639H66.9118Z" fill="#2C4345"/>
<path d="M72.7519 2.63916C73.5178 2.63916 74.0922 2.93237 74.4752 3.61653C74.8582 3.03011 75.6241 2.63916 76.39 2.63916C77.6346 2.63916 78.4005 3.5188 78.4005 4.88712V9.77398C78.4005 9.96945 78.3048 10.0672 78.1133 10.0672H77.3474C77.1559 10.0672 77.0602 9.96945 77.0602 9.77398V5.08259C77.0602 4.30069 76.6772 3.90974 75.9113 3.90974C75.2411 3.90974 74.7624 4.30069 74.7624 4.98485V9.77398C74.7624 9.96945 74.6667 10.0672 74.4752 10.0672H73.7093C73.5178 10.0672 73.4221 9.96945 73.4221 9.77398V5.08259C73.4221 4.30069 73.0391 3.90974 72.2732 3.90974C71.603 3.90974 71.1243 4.30069 71.1243 4.98485V9.77398C71.1243 9.96945 71.0286 10.0672 70.8371 10.0672H70.0712C69.8797 10.0672 69.7839 9.96945 69.7839 9.77398V3.12785C69.7839 2.93237 69.8797 2.83463 70.0712 2.83463H70.8371C71.0286 2.83463 71.1243 2.93237 71.1243 3.12785V3.42106C71.5073 2.93237 72.0817 2.63916 72.7519 2.63916Z" fill="#2C4345"/>
<path d="M79.741 3.12785C79.741 2.93237 79.8367 2.83463 80.0282 2.83463H80.7941C80.9856 2.83463 81.0813 2.93237 81.0813 3.12785V3.5188C81.4643 3.03011 82.326 2.63916 83.0919 2.63916C84.8152 2.63916 85.9641 4.10522 85.9641 6.45091C85.9641 8.79661 84.9109 10.1649 83.1876 10.1649C82.3259 10.1649 81.56 9.77398 81.0813 9.18755V11.7287C81.0813 11.9242 80.9856 12.0219 80.7941 12.0219H80.0282C79.8367 12.0219 79.741 11.9242 79.741 11.7287V3.12785ZM82.8046 4.00748C82.2302 4.00748 81.4643 4.20296 81.0813 4.5939V7.33055C81.0813 8.30792 81.7515 8.89434 82.9004 8.89434C83.9535 8.89434 84.6237 7.91697 84.6237 6.45091C84.6237 4.88712 84.0493 4.00748 82.8046 4.00748Z" fill="#2C4345"/>
<path d="M87.5916 0.781981C87.5916 0.586507 87.6873 0.48877 87.8788 0.48877H88.6447C88.8362 0.48877 88.9319 0.586507 88.9319 0.781981V1.95483C88.9319 2.1503 88.8362 2.24804 88.6447 2.24804H87.8788C87.6873 2.24804 87.5916 2.1503 87.5916 1.95483V0.781981ZM87.5916 3.22541C87.5916 3.02994 87.6873 2.9322 87.8788 2.9322H88.6447C88.8362 2.9322 88.9319 3.02994 88.9319 3.22541V9.77381C88.9319 9.96928 88.8362 10.067 88.6447 10.067H87.8788C87.6873 10.067 87.5916 9.96928 87.5916 9.77381V3.22541Z" fill="#2C4345"/>
<path d="M93.7189 4.00748C92.6658 4.00748 92.0913 4.5939 92.0913 5.47354V9.77398C92.0913 9.96945 91.9956 10.0672 91.8041 10.0672H91.0382C90.8467 10.0672 90.751 9.96945 90.751 9.77398V3.12785C90.751 2.93237 90.8467 2.83463 91.0382 2.83463H91.7084C91.8999 2.83463 91.9956 2.93237 91.9956 3.12785V3.5188C92.4743 3.03011 93.2402 2.63916 94.0061 2.63916C95.6337 2.63916 96.5911 3.61653 96.5911 5.3758V9.77398C96.5911 9.96945 96.4954 10.0672 96.3039 10.0672H95.538C95.3465 10.0672 95.2508 9.96945 95.2508 9.77398V5.66901C95.3465 4.49617 94.7721 4.00748 93.7189 4.00748Z" fill="#2C4345"/>
<path d="M101.283 10.9464C102.336 10.9464 102.814 10.4577 102.814 9.48036V8.30751C102.336 8.7962 101.57 9.08941 100.804 9.08941C99.0805 9.08941 97.9316 7.81883 97.9316 5.86408C97.9316 3.90934 99.0805 2.54102 100.9 2.54102C101.57 2.54102 102.431 2.83423 102.814 3.32291V3.12744C102.814 2.93196 102.91 2.83423 103.102 2.83423H103.868C104.059 2.83423 104.155 2.93196 104.155 3.22518V9.5781C104.155 11.4351 103.102 12.4125 101.187 12.4125C99.4635 12.4125 98.3146 11.5328 98.3146 10.1645C98.3146 9.96904 98.4103 9.87131 98.6018 9.87131H99.3677C99.5592 9.87131 99.655 9.96904 99.655 10.0668C99.8464 10.6532 100.325 10.9464 101.283 10.9464ZM100.995 7.81883C102.144 7.81883 102.814 7.2324 102.814 6.54824V4.49576C102.431 4.20255 101.666 4.00707 101.091 4.00707C99.9422 4.00707 99.272 4.78897 99.272 5.96182C99.272 7.03693 99.9422 7.81883 100.995 7.81883Z" fill="#2C4345"/>
<path d="M116.409 8.4054C116.888 8.79635 117.367 9.28504 117.941 9.77372C118.133 9.9692 118.037 10.1647 117.75 10.1647H116.697C116.505 10.1647 116.314 10.0669 116.218 9.9692C116.026 9.77372 115.835 9.57825 115.643 9.38277C114.782 10.0669 113.729 10.4579 112.388 10.4579C110.091 10.4579 108.846 9.48051 108.846 7.72124C108.846 6.45066 109.516 5.47328 111.048 4.69139C110.378 3.90949 110.091 3.12759 110.091 2.44343C110.091 0.977372 111.144 0 112.867 0C114.495 0 115.643 0.977372 115.643 2.34569C115.643 3.4208 115.069 4.2027 113.346 5.08234C114.207 5.96197 114.878 6.74387 115.548 7.42803C115.835 6.93934 115.931 6.35292 116.026 5.66876C116.026 5.47328 116.122 5.37555 116.409 5.37555H117.175C117.367 5.37555 117.463 5.47328 117.463 5.66876C117.175 6.74387 116.888 7.6235 116.409 8.4054ZM110.186 7.72124C110.186 8.60088 110.952 9.1873 112.293 9.1873C113.25 9.1873 114.016 8.89409 114.59 8.4054C113.824 7.72124 112.963 6.84161 111.91 5.7665C110.665 6.45066 110.186 6.93934 110.186 7.72124ZM114.016 2.34569C114.016 1.66153 113.537 1.27058 112.676 1.27058C111.814 1.27058 111.239 1.66153 111.239 2.34569C111.239 2.83438 111.431 3.32307 112.197 4.10496C113.441 3.51854 114.016 2.93212 114.016 2.34569Z" fill="#2C4345"/>
<path d="M123.398 0.48877H126.749C128.664 0.48877 129.622 1.27067 129.622 2.9322C129.622 3.81184 129.239 4.496 128.568 4.88694C129.526 5.18016 130.196 6.15753 130.196 7.33038C130.196 9.08965 129.143 10.067 127.132 10.067H123.303C122.92 10.067 122.728 9.87154 122.728 9.48059V1.07519C122.92 0.684244 123.111 0.48877 123.398 0.48877ZM128.281 3.12767C128.281 2.24804 127.802 1.85709 126.845 1.85709H124.26V4.496H126.845C127.802 4.496 128.281 4.00731 128.281 3.12767ZM124.26 5.76658V8.6987H127.324C128.377 8.6987 128.856 8.21001 128.856 7.23264C128.856 6.25527 128.377 5.76658 127.324 5.76658H124.26Z" fill="#2C4345"/>
<path d="M136.515 9.38303C135.94 9.87172 134.887 10.1649 134.026 10.1649C132.494 10.1649 131.536 9.28529 131.536 8.01471C131.536 6.1577 132.781 5.47354 136.515 5.47354V5.18033C136.515 4.30069 135.94 3.90974 134.983 3.90974C134.121 3.90974 133.643 4.20296 133.451 4.78938C133.451 4.98485 133.355 4.98485 133.068 4.98485H132.207C132.015 4.98485 131.919 4.88712 131.919 4.69164C132.111 3.42106 133.164 2.63916 134.983 2.63916C136.898 2.63916 137.855 3.5188 137.855 5.27807V9.77398C137.855 9.96945 137.759 10.0672 137.568 10.0672H136.802C136.611 10.0672 136.515 9.96945 136.515 9.77398V9.38303ZM136.515 6.64639C133.834 6.74412 132.877 7.03734 132.877 8.01471C132.877 8.60113 133.451 8.99208 134.313 8.99208C134.983 8.99208 135.749 8.79661 136.611 8.30792V6.64639H136.515Z" fill="#2C4345"/>
<path d="M141.972 4.00748C141.11 4.00748 140.632 4.39843 140.632 5.18033V9.77398C140.632 9.96945 140.536 10.0672 140.344 10.0672H139.578C139.387 10.0672 139.291 9.96945 139.291 9.77398V3.12785C139.291 2.93237 139.387 2.83463 139.578 2.83463H140.344C140.536 2.83463 140.632 2.93237 140.632 3.12785V3.32332C141.015 2.93237 141.685 2.63916 142.355 2.63916C142.738 2.63916 143.025 2.7369 143.312 2.83463C143.504 2.93237 143.504 3.03011 143.504 3.22558L143.408 3.90974C143.312 4.10522 143.217 4.20296 143.025 4.10522C142.642 4.00748 142.259 4.00748 141.972 4.00748Z" fill="#2C4345"/>
<path d="M144.653 0.48877H145.419C145.61 0.48877 145.706 0.586507 145.706 0.781981V3.61636C146.28 3.02994 146.951 2.63899 147.812 2.63899C149.536 2.63899 150.589 4.00731 150.589 6.353C150.589 8.6987 149.44 10.1648 147.716 10.1648C146.951 10.1648 146.089 9.77381 145.706 9.28512V9.77381C145.706 9.96928 145.61 10.067 145.419 10.067H144.653C144.461 10.067 144.366 9.96928 144.366 9.77381V0.781981C144.27 0.586507 144.461 0.48877 144.653 0.48877ZM147.525 4.00731C146.376 4.00731 145.706 4.59373 145.706 5.5711V8.30775C146.185 8.60096 146.855 8.89417 147.429 8.89417C148.578 8.89417 149.248 8.01453 149.248 6.45074C149.248 4.88694 148.578 4.00731 147.525 4.00731Z" fill="#2C4345"/>
<path d="M155.376 10.1648C153.173 10.2625 151.929 9.0897 151.833 6.54853C151.737 4.1051 152.791 2.73678 154.897 2.63904C156.907 2.54131 158.152 3.81189 158.248 6.05985C158.248 6.54853 158.056 6.93948 157.482 6.93948L153.173 7.13495C153.365 8.40554 154.035 8.89423 155.28 8.79649C156.046 8.79649 156.62 8.50328 156.907 7.91685C157.003 7.81912 157.099 7.72138 157.195 7.72138H157.961C158.152 7.72138 158.248 7.81912 158.248 8.01459C158.152 9.28517 157.099 10.0671 155.376 10.1648ZM156.907 5.76663C156.812 4.39831 156.237 3.81189 154.993 3.90963C153.844 4.00736 153.269 4.59379 153.173 5.96211L156.907 5.76663Z" fill="#2C4345"/>
<path d="M162.173 10.7513C160.067 10.2626 159.205 8.69879 159.684 6.35309C160.163 3.90966 161.599 2.93229 163.609 3.32324C165.237 3.71419 166.099 4.59382 166.099 6.15762C166.099 6.35309 166.003 6.45083 165.811 6.45083H165.045C164.854 6.45083 164.758 6.35309 164.758 6.15762C164.662 5.27798 164.279 4.88703 163.418 4.69156C162.077 4.39835 161.407 4.98477 161.12 6.6463C160.737 8.30784 161.12 9.08973 162.556 9.48068C163.514 9.67616 163.992 9.38295 164.471 8.60105C164.567 8.50331 164.662 8.40557 164.854 8.50331L165.62 8.79652C165.811 8.89426 165.811 8.992 165.716 9.18747C165.045 10.5558 163.801 11.1422 162.173 10.7513Z" fill="#2C4345"/>
<path d="M168.588 11.8261C169.449 12.3147 170.311 12.1193 170.694 11.4351L172.705 7.72109C172.8 7.52562 172.992 7.52562 173.183 7.62335L173.854 8.0143C174.045 8.11204 174.045 8.30751 173.949 8.50299L170.79 14.2695C170.694 14.465 170.503 14.465 170.311 14.3672L169.641 13.9763C169.449 13.8785 169.449 13.6831 169.545 13.4876L169.737 13.0966C169.067 13.2921 168.205 13.1944 167.535 12.8034C166.099 12.0215 165.716 10.6532 166.577 9.08941L168.684 5.27766C168.779 5.08218 168.971 5.08218 169.162 5.17992L169.832 5.57087C170.024 5.66861 170.024 5.86408 169.928 6.05956L167.918 9.67583C167.439 10.5555 167.63 11.2396 168.588 11.8261Z" fill="#2C4345"/>
<path d="M172.896 17.1041C171.46 15.3448 171.652 13.5855 173.471 12.0217C175.29 10.458 177.013 10.458 178.449 12.1195C179.789 13.6833 179.598 15.4425 177.779 17.0063C177.396 17.2996 177.013 17.3973 176.63 16.9086L173.854 13.5855C172.992 14.5629 172.992 15.3448 173.854 16.3222C174.332 16.9086 174.907 17.2018 175.481 17.1041C175.577 17.1041 175.768 17.1041 175.864 17.2018L176.343 17.7882C176.439 17.9837 176.439 18.0815 176.343 18.1792C175.29 18.8634 173.949 18.3747 172.896 17.1041ZM177.204 15.638C178.162 14.7584 178.258 13.8788 177.492 12.9991C176.726 12.1195 175.864 12.0217 174.811 12.8036L177.204 15.638Z" fill="#2C4345"/>
<path d="M179.598 29.5167C179.311 30.1031 178.928 30.5918 178.64 31.2759C178.545 31.4714 178.257 31.3737 178.257 31.1782L178.066 30.1031C178.066 29.9076 178.066 29.7121 178.162 29.6144C178.257 29.4189 178.449 29.1257 178.545 28.9302C177.683 28.2461 177.109 27.171 176.821 25.9004C176.343 23.6524 177.109 22.1864 178.736 21.7954C179.981 21.5022 181.034 22.0886 182.087 23.3592C182.757 22.5773 183.427 22.0886 184.098 21.8932C185.534 21.6 186.587 22.4796 186.97 24.1411C187.257 25.8027 186.587 27.0732 185.246 27.3664C184.193 27.5619 183.332 27.0732 182.183 25.6072C181.417 26.6823 180.842 27.4642 180.364 28.3438C180.842 28.5393 181.513 28.5393 182.087 28.4416C182.279 28.4416 182.374 28.5393 182.47 28.7348L182.662 29.5167C182.662 29.7121 182.566 29.8099 182.47 29.9076C181.321 30.0054 180.364 29.9076 179.598 29.5167ZM179.023 23.1637C178.162 23.3592 177.779 24.2389 178.066 25.5094C178.257 26.4868 178.64 27.171 179.215 27.6597C179.789 26.78 180.459 25.7049 181.225 24.4343C180.268 23.3592 179.694 23.066 179.023 23.1637ZM184.864 25.9981C185.534 25.9004 185.821 25.314 185.629 24.4343C185.438 23.5547 184.959 23.066 184.385 23.2615C183.906 23.3592 183.523 23.6524 182.853 24.5321C183.715 25.6072 184.289 26.0959 184.864 25.9981Z" fill="#2C4345"/>
<path d="M177.779 39.7792C177.874 37.0426 179.502 35.6742 182.662 35.772C185.821 35.8697 187.449 37.238 187.353 39.9747C187.353 42.0272 186.108 43.2 184.672 43.4932C184.481 43.4932 184.385 43.4932 184.385 43.2977L184.193 42.5159C184.193 42.3204 184.193 42.2226 184.385 42.1249C185.534 41.734 186.012 41.1475 186.012 39.9747C186.012 38.1177 184.959 37.238 182.566 37.238C180.172 37.1403 179.023 38.0199 179.023 39.9747C179.023 41.1475 179.598 41.9294 180.842 42.3204C181.034 42.4181 181.034 42.5159 181.034 42.7113L180.842 43.4932C180.747 43.6887 180.651 43.7864 180.555 43.6887C178.64 43.0045 177.683 41.734 177.779 39.7792Z" fill="#2C4345"/>
<path d="M178.353 49.4549C177.97 48.8685 177.587 47.6956 177.587 46.9137C177.587 45.3499 178.449 44.3726 179.789 44.3726C181.608 44.3726 182.183 45.7409 182.279 49.5526H182.47C183.332 49.5526 183.811 48.9662 183.811 47.9888C183.811 47.1092 183.523 46.6205 182.949 46.425C182.757 46.425 182.757 46.3273 182.757 46.0341V45.1545C182.757 44.959 182.853 44.8612 183.045 44.8612C184.289 45.0567 185.055 46.2296 185.055 47.9888C185.055 49.9436 184.193 50.9209 182.374 50.9209L177.97 50.8232C177.779 50.8232 177.683 50.7255 177.683 50.53V49.7481C177.683 49.5526 177.779 49.4549 177.97 49.4549H178.353ZM181.034 49.5526C181.034 46.816 180.651 45.8386 179.789 45.7409C179.215 45.7409 178.832 46.3273 178.832 47.2069C178.832 47.8911 179.024 48.673 179.502 49.5526H181.034Z" fill="#2C4345"/>
<path d="M183.81 53.8531H185.342C186.491 53.8531 187.161 54.635 187.161 55.9056C187.161 56.2965 187.161 56.5897 187.066 56.883C186.97 57.0784 186.874 57.1762 186.778 57.1762H186.012C185.821 57.1762 185.725 57.0784 185.821 56.883C185.821 56.6875 185.917 56.3943 185.917 56.1988C185.917 55.6124 185.63 55.3192 185.151 55.3192H183.81V57.6649C183.81 57.8603 183.715 57.9581 183.523 57.9581H182.757C182.566 57.9581 182.47 57.8603 182.47 57.6649V55.3192H177.97C177.779 55.3192 177.683 55.2214 177.683 55.0259V54.244C177.683 54.0486 177.779 53.9508 177.97 53.9508H182.47V52.2893C182.47 52.0938 182.566 51.9961 182.757 51.9961H183.523C183.715 51.9961 183.81 52.0938 183.81 52.2893V53.8531Z" fill="#2C4345"/>
<path d="M177.492 62.0634C177.492 59.8154 178.736 58.6426 181.226 58.6426C183.619 58.6426 184.959 59.8154 184.959 61.9656C184.959 64.0181 183.715 65.2887 181.417 65.2887C180.938 65.2887 180.555 64.9955 180.555 64.5068V60.1086C179.311 60.3041 178.832 60.8905 178.832 62.1611C178.832 62.943 179.119 63.5294 179.598 63.8227C179.694 63.9204 179.789 64.0181 179.789 64.2136V64.9955C179.789 65.191 179.694 65.2887 179.502 65.2887C178.258 64.9955 177.492 63.8227 177.492 62.0634ZM181.704 63.8227C183.045 63.8227 183.619 63.2362 183.619 61.9656C183.619 60.7928 183.045 60.1086 181.704 60.0109V63.8227Z" fill="#2C4345"/>
</svg>
